<svg width="280" height="175" viewBox="0 0 280 121" fill="none" xmlns="http://www.w3.org/2000/svg">
<path d="M-412.305 110.479C-376.734 96.6655 -340.335 93.9531 -303.109 102.342C-265.884 110.731 -229.485 108.019 -193.914 94.2048C-158.342 80.391 -121.944 77.6785 -84.7176 86.0675C-47.4917 94.4565 -11.0931 91.7441 24.4783 77.9302C60.0496 64.1164 96.4483 61.404 133.674 69.7929C170.9 78.1819 207.299 75.4695 242.87 61.6557C278.441 47.8418 314.84 45.1294 352.066 53.5184C389.292 61.9073 425.691 59.1949 461.262 45.3811C496.833 31.5672 533.232 28.8548 570.458 37.2438C607.684 45.6328 644.082 42.9203 679.654 29.1065C715.225 15.2927 751.624 12.5802 788.85 20.9692C826.076 29.3582 862.474 26.6458 898.046 12.8319C933.617 -0.981907 970.016 -3.69434 1007.24 4.69464C1044.47 13.0836 1080.87 10.3712 1116.44 -3.44264C1152.01 -17.2565 1188.41 -19.9689 1225.63 -11.5799C1262.86 -3.19095 1299.26 -5.90338 1334.83 -19.7172C1370.4 -33.5311 1406.8 -36.2435 1444.03 -27.8545C1481.25 -19.4655 1517.65 -22.178 1553.22 -35.9918C1588.79 -49.8056 1625.19 -52.5181 1662.42 -44.1291C1699.64 -35.7401 1736.04 -38.4525 1771.61 -52.2664" stroke="#F2F7FF" stroke-opacity="0.1"/>
<path d="M-411.59 120.086C-376.018 106.272 -339.62 103.56 -302.394 111.949C-265.168 120.338 -228.769 117.625 -193.198 103.811C-157.626 89.9974 -121.228 87.285 -84.0018 95.674C-46.7759 104.063 -10.3772 101.351 25.1941 87.5367C60.7655 73.7228 97.1641 71.0104 134.39 79.3994C171.616 87.7884 208.015 85.0759 243.586 71.2621C279.157 57.4483 315.556 54.7358 352.782 63.1248C390.008 71.5138 426.406 68.8014 461.978 54.9875C497.549 41.1737 533.948 38.4613 571.174 46.8502C608.4 55.2392 644.798 52.5268 680.37 38.713C715.941 24.8991 752.34 22.1867 789.565 30.5757C826.791 38.9646 863.19 36.2522 898.761 22.4384C934.333 8.62454 970.731 5.91211 1007.96 14.3011C1045.18 22.6901 1081.58 19.9776 1117.15 6.1638C1152.72 -7.65004 1189.12 -10.3625 1226.35 -1.97348C1263.57 6.4155 1299.97 3.70307 1335.54 -10.1108C1371.12 -23.9246 1407.51 -26.637 1444.74 -18.2481C1481.97 -9.85908 1518.37 -12.5715 1553.94 -26.3853C1589.51 -40.1992 1625.91 -42.9116 1663.13 -34.5226C1700.36 -26.1337 1736.76 -28.8461 1772.33 -42.6599" stroke="#F2F7FF" stroke-opacity="0.1"/>
<path d="M-410.873 129.693C-375.302 115.879 -338.903 113.167 -301.678 121.556C-264.452 129.945 -228.053 127.233 -192.482 113.419C-156.91 99.6048 -120.512 96.8924 -83.2858 105.281C-46.0599 113.67 -9.66123 110.958 25.9101 97.1441C61.4815 83.3303 97.8801 80.6178 135.106 89.0068C172.332 97.3958 208.731 94.6834 244.302 80.8695C279.873 67.0557 316.272 64.3433 353.498 72.7322C390.724 81.1212 427.122 78.4088 462.694 64.595C498.265 50.7811 534.664 48.0687 571.89 56.4577C609.115 64.8466 645.514 62.1342 681.085 48.3204C716.657 34.5065 753.055 31.7941 790.281 40.1831C827.507 48.5721 863.906 45.8596 899.477 32.0458C935.049 18.232 971.447 15.5195 1008.67 23.9085C1045.9 32.2975 1082.3 29.5851 1117.87 15.7712C1153.44 1.9574 1189.84 -0.75503 1227.06 7.63395C1264.29 16.0229 1300.69 13.3105 1336.26 -0.503336C1371.83 -14.3172 1408.23 -17.0296 1445.46 -8.64062C1482.68 -0.251641 1519.08 -2.96407 1554.65 -16.7779C1590.22 -30.5917 1626.62 -33.3042 1663.85 -24.9152C1701.07 -16.5262 1737.47 -19.2386 1773.04 -33.0525" stroke="#F2F7FF" stroke-opacity="0.1"/>
<path d="M-410.158 139.3C-374.586 125.486 -338.188 122.773 -300.962 131.162C-263.736 139.551 -227.337 136.839 -191.766 123.025C-156.194 109.211 -119.796 106.499 -82.5699 114.888C-45.344 123.277 -8.94536 120.564 26.626 106.751C62.1973 92.9367 98.596 90.2243 135.822 98.6133C173.048 107.002 209.446 104.29 245.018 90.476C280.589 76.6621 316.988 73.9497 354.214 82.3387C391.44 90.7277 427.838 88.0152 463.41 74.2014C498.981 60.3876 535.38 57.6751 572.606 66.0641C609.831 74.4531 646.23 71.7407 681.801 57.9268C717.373 44.113 753.771 41.4006 790.997 49.7895C828.223 58.1785 864.622 55.4661 900.193 41.6522C935.765 27.8384 972.163 25.126 1009.39 33.515C1046.62 41.9039 1083.01 39.1915 1118.59 25.3777C1154.16 11.5638 1190.56 8.8514 1227.78 17.2404C1265.01 25.6294 1301.41 22.9169 1336.98 9.1031C1372.55 -4.71074 1408.95 -7.42317 1446.17 0.965808C1483.4 9.35479 1519.8 6.64236 1555.37 -7.17148C1590.94 -20.9853 1627.34 -23.6977 1664.56 -15.3088C1701.79 -6.91979 1738.19 -9.63221 1773.76 -23.4461" stroke="#F2F7FF" stroke-opacity="0.1"/>
<path d="M-409.442 148.907C-373.87 135.093 -337.472 132.381 -300.246 140.77C-263.02 149.159 -226.621 146.446 -191.05 132.633C-155.479 118.819 -119.08 116.106 -81.8541 124.495C-44.6282 132.884 -8.22954 130.172 27.3418 116.358C62.9132 102.544 99.3118 99.8317 136.538 108.221C173.764 116.61 210.162 113.897 245.734 100.083C281.305 86.2696 317.704 83.5571 354.93 91.9461C392.155 100.335 428.554 97.6227 464.125 83.8088C499.697 69.995 536.095 67.2825 573.321 75.6715C610.547 84.0605 646.946 81.3481 682.517 67.5342C718.089 53.7204 754.487 51.008 791.713 59.397C828.939 67.7859 865.338 65.0735 900.909 51.2597C936.48 37.4458 972.879 34.7334 1010.1 43.1224C1047.33 51.5114 1083.73 48.7989 1119.3 34.9851C1154.87 21.1713 1191.27 18.4588 1228.5 26.8478C1265.72 35.2368 1302.12 32.5244 1337.69 18.7105C1373.26 4.89668 1409.66 2.18425 1446.89 10.5732C1484.11 18.9622 1520.51 16.2498 1556.08 2.43594C1591.66 -11.3779 1628.05 -14.0903 1665.28 -5.70134C1702.51 2.68764 1738.9 -0.0247929 1774.48 -13.8386" stroke="#F2F7FF" stroke-opacity="0.1"/>
<path d="M-408.726 158.514C-373.154 144.7 -336.756 141.987 -299.53 150.376C-262.304 158.765 -225.905 156.053 -190.334 142.239C-154.763 128.425 -118.364 125.713 -81.138 134.102C-43.9121 142.491 -7.51348 139.778 28.0579 125.964C63.6292 112.151 100.028 109.438 137.254 117.827C174.48 126.216 210.878 123.504 246.45 109.69C282.021 95.876 318.42 93.1636 355.646 101.553C392.871 109.942 429.27 107.229 464.841 93.4153C500.413 79.6014 536.811 76.889 574.037 85.278C611.263 93.667 647.662 90.9545 683.233 77.1407C718.805 63.3268 755.203 60.6144 792.429 69.0034C829.655 77.3924 866.054 74.6799 901.625 60.8661C937.196 47.0523 973.595 44.3398 1010.82 52.7288C1048.05 61.1178 1084.45 58.4054 1120.02 44.5915C1155.59 30.7777 1191.99 28.0653 1229.21 36.4542C1266.44 44.8432 1302.84 42.1308 1338.41 28.317C1373.98 14.5031 1410.38 11.7907 1447.6 20.1797C1484.83 28.5687 1521.23 25.8562 1556.8 12.0424C1592.37 -1.77145 1628.77 -4.48388 1666 3.9051C1703.22 12.2941 1739.62 9.58165 1775.19 -4.23219" stroke="#F2F7FF" stroke-opacity="0.1"/>
<path d="M-408.01 164.12C-372.439 150.306 -336.04 147.594 -298.814 155.983C-261.588 164.372 -225.189 161.659 -189.618 147.845C-154.047 134.032 -117.648 131.319 -80.4222 139.708C-43.1963 148.097 -6.79766 145.385 28.7737 131.571C64.3451 117.757 100.744 115.045 137.97 123.434C175.196 131.823 211.594 129.11 247.166 115.296C282.737 101.482 319.135 98.77 356.361 107.159C393.587 115.548 429.986 112.836 465.557 99.0217C501.129 85.2079 537.527 82.4954 574.753 90.8844C611.979 99.2734 648.378 96.561 683.949 82.7471C719.52 68.9333 755.919 66.2209 793.145 74.6098C830.371 82.9988 866.77 80.2864 902.341 66.4726C937.912 52.6587 974.311 49.9463 1011.54 58.3353C1048.76 66.7242 1085.16 64.0118 1120.73 50.198C1156.3 36.3841 1192.7 33.6717 1229.93 42.0607C1267.15 50.4497 1303.55 47.7372 1339.12 33.9234C1374.7 20.1096 1411.09 17.3971 1448.32 25.7861C1485.55 34.1751 1521.94 31.4627 1557.52 17.6488C1593.09 3.835 1629.49 1.12257 1666.71 9.51155C1703.94 17.9005 1740.34 15.1881 1775.91 1.37426" stroke="#F2F7FF" stroke-opacity="0.1"/>
<path d="M-407.294 163.727C-371.723 149.914 -335.324 147.201 -298.098 155.59C-260.872 163.979 -224.474 161.267 -188.902 147.453C-153.331 133.639 -116.932 130.927 -79.7064 139.316C-42.4805 147.705 -6.08184 144.992 29.4895 131.178C65.0609 117.364 101.46 114.652 138.685 123.041C175.911 131.43 212.31 128.718 247.881 114.904C283.453 101.09 319.851 98.3774 357.077 106.766C394.303 115.155 430.702 112.443 466.273 98.6291C501.844 84.8153 538.243 82.1029 575.469 90.4918C612.695 98.8808 649.094 96.1684 684.665 82.3546C720.236 68.5407 756.635 65.8283 793.861 74.2173C831.087 82.6062 867.485 79.8938 903.057 66.08C938.628 52.2661 975.027 49.5537 1012.25 57.9427C1049.48 66.3317 1085.88 63.6192 1121.45 49.8054C1157.02 35.9916 1193.42 33.2791 1230.64 41.6681C1267.87 50.0571 1304.27 47.3447 1339.84 33.5308C1375.41 19.717 1411.81 17.0046 1449.04 25.3935C1486.26 33.7825 1522.66 31.0701 1558.23 17.2563C1593.8 3.44242 1630.2 0.729988 1667.43 9.11897C1704.65 17.5079 1741.05 14.7955 1776.62 0.981681" stroke="#F2F7FF" stroke-opacity="0.1" stroke-width="2"/>
<path d="M-406.578 164.334C-371.007 150.52 -334.608 147.808 -297.382 156.197C-260.156 164.586 -223.758 161.873 -188.186 148.059C-152.615 134.245 -116.216 131.533 -78.9903 139.922C-41.7644 148.311 -5.36577 145.599 30.2056 131.785C65.7769 117.971 102.176 115.258 139.401 123.647C176.627 132.036 213.026 129.324 248.597 115.51C284.169 101.696 320.567 98.9839 357.793 107.373C395.019 115.762 431.418 113.049 466.989 99.2356C502.561 85.4217 538.959 82.7093 576.185 91.0983C613.411 99.4873 649.81 96.7748 685.381 82.961C720.952 69.1472 757.351 66.4347 794.577 74.8237C831.803 83.2127 868.201 80.5003 903.773 66.6864C939.344 52.8726 975.743 50.1602 1012.97 58.5491C1050.19 66.9381 1086.59 64.2257 1122.16 50.4118C1157.74 36.598 1194.13 33.8856 1231.36 42.2746C1268.59 50.6635 1304.99 47.9511 1340.56 34.1373C1376.13 20.3234 1412.53 17.611 1449.75 26C1486.98 34.389 1523.38 31.6765 1558.95 17.8627C1594.52 4.04886 1630.92 1.33643 1668.14 9.72541C1705.37 18.1144 1741.77 15.402 1777.34 1.58813" stroke="#F2F7FF" stroke-opacity="0.1" stroke-width="2"/>
<path d="M-405.862 163.94C-370.291 150.126 -333.892 147.414 -296.666 155.803C-259.44 164.192 -223.042 161.48 -187.47 147.666C-151.899 133.852 -115.5 131.139 -78.2745 139.528C-41.0486 147.917 -4.64995 145.205 30.9214 131.391C66.4928 117.577 102.891 114.865 140.117 123.254C177.343 131.643 213.742 128.93 249.313 115.117C284.885 101.303 321.283 98.5903 358.509 106.979C395.735 115.368 432.134 112.656 467.705 98.842C503.276 85.0282 539.675 82.3157 576.901 90.7047C614.127 99.0937 650.525 96.3813 686.097 82.5674C721.668 68.7536 758.067 66.0412 795.293 74.4302C832.519 82.8191 868.917 80.1067 904.489 66.2929C940.06 52.479 976.459 49.7666 1013.68 58.1556C1050.91 66.5446 1087.31 63.8321 1122.88 50.0183C1158.45 36.2045 1194.85 33.492 1232.08 41.881C1269.3 50.27 1305.7 47.5576 1341.27 33.7437C1376.84 19.9299 1413.24 17.2175 1450.47 25.6064C1487.69 33.9954 1524.09 31.283 1559.66 17.4691C1595.24 3.65531 1631.63 0.942879 1668.86 9.33186C1706.09 17.7208 1742.48 15.0084 1778.06 1.19457" stroke="#F2F7FF" stroke-opacity="0.1" stroke-width="2"/>
</svg>

