<svg width="24" height="25" viewBox="0 0 24 25" fill="none" xmlns="http://www.w3.org/2000/svg">
<rect y="0.5" width="24" height="24" rx="12" fill="#8FA3BF"/>
<g clip-path="url(#clip0_14845_558)">
<path fill-rule="evenodd" clip-rule="evenodd" d="M14.9506 5.9017C14.8652 5.75665 14.6761 5.70691 14.5283 5.7907L9.46809 8.65799C9.35293 8.7233 9.29313 8.85368 9.31984 8.9816L11.0228 17.1496C11.0311 17.1889 11.014 17.247 10.9883 17.2755L10.7814 17.5045C10.3512 17.9807 9.9868 18.2386 9.29416 18.2386C8.51751 18.2386 8.15287 17.8369 7.5755 17.1267C6.88593 16.2786 6.02792 15.2233 3.94176 15.2233H3.89018C3.60565 15.2233 3.375 15.4496 3.375 15.7289C3.375 16.0081 3.60565 16.2345 3.89018 16.2345H3.94176C5.5318 16.2345 6.13326 16.9742 6.77009 17.7574C7.33891 18.4571 7.98362 19.25 9.29416 19.25C10.4255 19.25 11.0481 18.7335 11.5523 18.1755L13.4121 16.1171C13.4121 16.117 17.8356 11.2211 17.8356 11.2211C17.9239 11.1234 17.9386 10.9812 17.8721 10.8681L14.9506 5.9017Z" fill="white"/>
</g>
<defs>
<clipPath id="clip0_14845_558">
<rect width="14.625" height="13.5" fill="white" transform="translate(3.375 5.75)"/>
</clipPath>
</defs>
</svg>
